<?xml version="1.0"?>
<svg xmlns="http://www.w3.org/2000/svg" width="50" height="50" viewBox="0 0 50 50">
    <path d="M 17.84375 10 C 17.43175 10 17.05525 10.27225 16.90625 10.65625 L 4.125 43.5 C 4.005 43.809 4.03275 44.13425 4.21875 44.40625 C 4.40575 44.67925 4.7325 44.84375 5.0625 44.84375 L 9.5 44.84375 C 9.918 44.84375 10.2915 44.5795 10.4375 44.1875 L 13.875 34.96875 L 26.375 34.96875 L 29.71875 44.1875 C 29.86175 44.5825 30.2665 44.84375 30.6875 44.84375 L 35.5 44.84375 L 35.53125 44.84375 C 36.08425 44.84375 36.53025 44.39675 36.53125 43.84375 C 36.53125 43.64675 36.474 43.4675 36.375 43.3125 L 23.59375 10.65625 C 23.44375 10.27225 23.06825 10 22.65625 10 L 17.84375 10 z M 20.1875 17.78125 L 24.28125 29.28125 L 16 29.28125 L 20.1875 17.78125 z M 37 24 C 36.447 24 36 24.448 36 25 C 36 25.552 36.447 26 37 26 L 47 26 C 47.553 26 48 25.552 48 25 C 48 24.448 47.553 24 47 24 L 37 24 z"/>
</svg>
