<?xml version="1.0"?>
<svg xmlns="http://www.w3.org/2000/svg" width="50" height="50" viewBox="0 0 50 50">
    <path d="M 18.4375 4.28125 C 18.0255 4.28125 17.649 4.5535 17.5 4.9375 L 2.46875 43.5 C 2.34875 43.809 2.40775 44.13425 2.59375 44.40625 C 2.78075 44.67925 3.07625 44.84375 3.40625 44.84375 L 8.65625 44.84375 C 9.07425 44.84375 9.44775 44.5795 9.59375 44.1875 L 13.65625 33.25 L 28.5625 33.25 L 32.5625 44.1875 C 32.7055 44.5825 33.079 44.84375 33.5 44.84375 L 39.15625 44.84375 L 39.1875 44.84375 C 39.7395 44.84375 40.1875 44.39675 40.1875 43.84375 C 40.1875 43.64675 40.13025 43.4675 40.03125 43.3125 L 25.03125 4.9375 C 24.88125 4.5535 24.50575 4.28125 24.09375 4.28125 L 18.4375 4.28125 z M 21.15625 12.75 L 26.25 26.90625 L 16.03125 26.90625 L 21.15625 12.75 z M 42 19 C 41.447 19 41 19.448 41 20 L 41 24 L 37 24 C 36.447 24 36 24.448 36 25 C 36 25.552 36.447 26 37 26 L 41 26 L 41 30 C 41 30.553 41.447 31 42 31 C 42.553 31 43 30.553 43 30 L 43 26 L 47 26 C 47.553 26 48 25.552 48 25 C 48 24.448 47.553 24 47 24 L 43 24 L 43 20 C 43 19.448 42.553 19 42 19 z"/>
</svg>
